<svg xmlns="http://www.w3.org/2000/svg" xmlns:xlink="http://www.w3.org/1999/xlink" xml:space="preserve" width="881.737mm" height="483.822mm" style="shape-rendering:geometricPrecision; text-rendering:geometricPrecision; image-rendering:optimizeQuality; fill-rule:evenodd; clip-rule:evenodd" viewBox="0 0 6549.41 3593.76">
 <defs>
  <style type="text/css">
   <![CDATA[
    .str0 {stroke:#332D2B;stroke-width:1.49;stroke-miterlimit:22.9256}
    .fil0 {fill:#EFEFEF}
   ]]>
  </style>
 </defs>
 <g id="Capa_x0020_1">
  <metadata id="CorelCorpID_0Corel-Layer"/>
  <g id="_105556945349376">
   <rect class="fil0 str0" x="0.74" y="1590.63" width="91.46" height="689.8" rx="45.73" ry="39.42"/>
   <rect class="fil0 str0" x="215.66" y="1245.35" width="100.42" height="1368.52" rx="50.21" ry="78.2"/>
   <rect class="fil0 str0" x="445.84" y="885.43" width="100.42" height="2088.35" rx="50.21" ry="119.33"/>
   <rect class="fil0 str0" x="659.28" y="1241.16" width="100.42" height="1376.89" rx="50.21" ry="78.68"/>
   <rect class="fil0 str0" x="889.46" y="1588.52" width="100.42" height="690.54" rx="50.21" ry="39.46"/>
   <rect class="fil0 str0" x="1107.08" y="1232.79" width="100.42" height="1393.63" rx="50.21" ry="79.64"/>
   <rect class="fil0 str0" x="1333.08" y="885.43" width="100.42" height="2079.98" rx="50.21" ry="118.86"/>
   <rect class="fil0 str0" x="1554.89" y="508.37" width="100.42" height="2816.96" rx="50.21" ry="160.97"/>
   <rect class="fil0 str0" x="1797.57" y="885.88" width="100.42" height="2071.83" rx="50.21" ry="118.39"/>
  </g>
  <g id="_105556945347808">
   <rect class="fil0 str0" x="6457.2" y="1220.88" width="91.46" height="689.8" rx="45.73" ry="39.42"/>
   <rect class="fil0 str0" x="6233.33" y="887.45" width="100.42" height="1368.52" rx="50.21" ry="78.2"/>
   <rect class="fil0 str0" x="6003.15" y="527.53" width="100.42" height="2088.35" rx="50.21" ry="119.33"/>
   <rect class="fil0 str0" x="5789.71" y="883.26" width="100.42" height="1376.89" rx="50.21" ry="78.68"/>
   <rect class="fil0 str0" x="5559.53" y="1222.25" width="100.42" height="690.54" rx="50.21" ry="39.46"/>
   <rect class="fil0 str0" x="5341.9" y="874.89" width="100.42" height="1393.63" rx="50.21" ry="79.64"/>
   <rect class="fil0 str0" x="5115.91" y="535.9" width="100.42" height="2079.98" rx="50.21" ry="118.86"/>
   <rect class="fil0 str0" x="4894.1" y="175.98" width="100.42" height="2816.96" rx="50.21" ry="160.97"/>
   <rect class="fil0 str0" x="4651.42" y="543.6" width="100.42" height="2071.83" rx="50.21" ry="118.39"/>
  </g>
  <g id="_105556945345760">
   <path class="fil0" d="M2580.76 656.74c0,54.45 -7.76,41.29 129.04,41.29 94.54,0 384.71,-7.43 438.75,5.16 13.62,58.47 0.72,46.45 -123.88,46.45l-381.99 -0.02c-81.29,-0.48 -61.92,-37.32 -61.92,252.94 0,23.07 32.11,15.76 56.74,15.53 103.43,-0.98 461.04,-6.53 511.06,5.12 13.62,58.47 0.72,46.46 -123.88,46.46l-381.99 -0.02c-81.29,-0.48 -61.92,-37.32 -61.92,252.94 0,25.87 85.24,15.49 134.2,15.49l304.54 0c49.56,0 134.2,-15.17 134.2,25.81 0,12.41 -8.36,15.17 -15.48,25.81l-500.73 -0.04c-71.18,-0.67 -56.74,-25.44 -56.74,165.22 0,40.51 5.16,58.69 5.16,98.07l521.33 0c71.27,0 46.59,56.78 20.65,56.78l-531.66 0c0,80.62 75.67,213.34 125.38,272.07 17.59,20.78 46.5,48.47 66.82,67.38 37.77,35.14 111.06,79.29 163.09,100.16 182.67,73.28 389.85,54.01 550.2,-55.46 27.97,-19.09 56,-42.07 79.12,-65.41 26.95,-27.19 42.36,-41.4 66.18,-73.19 12.48,-16.66 18.81,-24.29 29.7,-42.57 42.93,-72.07 86.06,-178.26 86.06,-275.26l0 -1094.29c0,-75.33 -33.01,-163.52 -65.36,-228.86 -65.59,-132.46 -183.08,-225.26 -318.73,-280.03 -82.9,-33.47 -166.71,-36.87 -255.92,-33.06 -127.16,5.42 -301.36,87.15 -376.15,181.32 -24.61,30.99 -53.7,56.65 -83.13,107.85 -65.15,113.31 -82.73,219.7 -82.73,366.34z"/>
   <path class="fil0" d="M2203.95 1529.07c0,191.2 -5.33,241.38 40.21,434.66 11.15,47.32 22.16,84.3 38.71,126.46 39.1,99.55 31.54,80.88 75.85,166.76l124.1 164.96c7.03,7.3 11.27,14.02 19.06,22.24 14.59,15.38 27.8,23.36 44.04,38.55 14.13,13.21 30.56,24.03 46.58,36.01 117.52,87.9 259.9,138.79 409.31,163.64 91.78,15.27 79.71,-13.69 79.64,85.54 -0.16,222.47 5.16,431.85 5.16,650.38l-485.2 0c-47.9,0 -83.78,35.12 -89.91,80.03 -5.8,42.48 32.93,95.47 74.43,95.47l1176.87 0c85.61,0 109.4,-161.83 -5.63,-175.03l-495.06 -0.46c11.89,-51.03 0.59,-121.91 5.43,-180.39 4.57,-55.19 0.35,-122.57 5.16,-180.66 4.64,-56.12 5.11,-117.26 4.87,-180.95 -0.14,-37.5 5,-56.14 5.38,-87.53 0.4,-32.54 -0.21,-65.66 -0.21,-98.28 102.45,0 275.34,-60.59 364.77,-104.95 151.21,-75 245.87,-177.11 331.11,-308.94 97.64,-151.02 166.13,-413.8 166.13,-608.13 0,-64.82 11.2,-179.52 -21.67,-215.77 -31.35,-34.56 -38.07,-32 -86.72,-32 -31.65,0 -55.32,28.35 -65.29,53.43 -12.24,30.76 -1.81,85.58 -1.81,137.55 0,183.44 -32.43,366.48 -108.32,521.41 -41.6,84.94 -111.39,180.6 -186.58,236.68 -11,8.21 -19.54,13.8 -30.25,21.36 -84.7,59.78 -154.74,85.88 -261.22,110.42 -94.67,21.82 -272.67,28.42 -369.98,9.69 -124.57,-23.96 -272.09,-69.53 -363.8,-162.7 -9.93,-10.09 -16.01,-16.08 -26.25,-25.37l-73.88 -86.13c-107.45,-146.18 -169.53,-390.03 -169.53,-573.76l0 -113.56c0,-40.84 11.06,-50.2 -6.6,-86.31 -32.07,-65.58 -168.9,-69.95 -168.9,65.66z"/>
  </g>
 </g>
</svg>